#!OML:ASF F:\VICON\USERDATA\INSTALL\rory3\rory3.ASF
:FULLY-SPECIFIED
:DEGREES
1476
root 0.268669 17.7841 -0.842944 -178.175 185.302 -180.188
lowerback 5.6303 -0.849451 -0.728413
upperback -0.281461 -1.02958 4.56482
thorax -3.3562 -0.462851 5.24227
lowerneck -24.7329 -3.67331 -9.51625
upperneck 22.4373 -3.30905 6.33982
head 11.71 -1.4856 3.38175
rclavicle -1.63997e-014 1.59028e-015
rhumerus 42.7501 -43.367 -13.6387
rradius 70.4049
rwrist 14.8577
rhand -53.2359 -0.727063
rfingers 7.12502
rthumb -25.6917 -29.0132
lclavicle -1.63997e-014 1.59028e-015
lhumerus 35.8907 40.7902 16.7273
lradius 75.1488
lwrist -17.4486
lhand -44.4067 34.9784
lfingers 7.12502
lthumb -17.2127 1144.24
rfemur -19.6003 5.87661 7.08231
rtibia 25.5251
rfoot -3.80694 -3.0151
rtoes 10.3488
lfemur -1.69265 1.609 -21.4345
ltibia 22.4278
lfoot -16.8194 7.17203
ltoes -16.8221
1477
root 0.295879 17.7872 -0.890829 -178.2 185.439 -180.276
lowerback 5.7012 -0.843786 -0.717261
upperback -0.126588 -1.02437 4.60211
thorax -3.23548 -0.464385 5.27336
lowerneck -24.8349 -3.65954 -9.36721
upperneck 22.2972 -3.30389 6.24458
head 11.6701 -1.47927 3.31849
rclavicle 3.18055e-015 -1.59028e-014
rhumerus 42.5175 -43.4994 -14.1018
rradius 68.9368
rwrist 13.7226
rhand -52.6622 -1.34674
rfingers 7.12502
rthumb -25.1421 -29.7111
lclavicle 3.18055e-015 -1.59028e-014
lhumerus 35.122 40.8185 17.041
lradius 73.7903
lwrist -16.6922
lhand -43.7546 34.4582
lfingers 7.12502
lthumb -16.5849 1143.77
rfemur -19.6676 5.96647 7.10741
rtibia 25.4274
rfoot -4.2398 -3.41541
rtoes 9.75982
lfemur -1.82848 1.71372 -21.4117
ltibia 22.4357
lfoot -16.6344 7.12778
ltoes -17.1607
1478
root 0.321332 17.7899 -0.934004 -178.188 185.613 -180.135
lowerback 5.68463 -0.809763 -0.922942
upperback -0.021081 -0.99782 4.56609
thorax -3.11643 -0.451676 5.34803
lowerneck -24.9835 -3.63043 -9.27631
upperneck 22.3204 -3.28529 6.25044
head 11.7032 -1.46014 3.30947
rclavicle -2.28602e-014 1.90833e-014
rhumerus 42.0123 -43.5009 -14.3167
rradius 67.5306
rwrist 12.4683
rhand -52.2585 -2.2475
rfingers 7.12502
rthumb -24.7553 -30.6656
lclavicle -2.28602e-014 1.90833e-014
lhumerus 34.4632 40.8089 17.5145
lradius 72.3365
lwrist -16.2558
lhand -43.0784 34.1042
lfingers 7.12502
lthumb -15.9339 1143.47
rfemur -19.8059 5.93461 6.87722
rtibia 25.3921
rfoot -4.63763 -3.6646
rtoes 9.02366
lfemur -2.014 1.8409 -21.6359
ltibia 22.4433
lfoot -16.5322 7.064
ltoes -17.4652
1479
root 0.344991 17.7964 -0.975586 -178.12 185.745 -180.033
lowerback 5.66481 -0.774821 -1.07899
upperback -0.00541251 -0.963284 4.53493
thorax -3.09044 -0.43294 5.40078
lowerneck -24.9797 -3.62736 -9.29831
upperneck 22.3931 -3.31051 6.3725
head 11.7354 -1.45814 3.35699
rclavicle -4.27387e-015 9.54166e-015
rhumerus 41.2518 -43.3303 -14.3462
rradius 66.2236
rwrist 11.0905
rhand -51.7757 -2.67747
rfingers 7.12502
rthumb -24.2925 -31.1583
lclavicle -4.27387e-015 9.54166e-015
lhumerus 33.761 40.7094 18.004
lradius 70.8629
lwrist -16.2357
lhand -42.107 34.0854
lfingers 7.12502
lthumb -14.9982 1143.52
rfemur -19.9952 5.86431 6.7003
rtibia 25.4571
rfoot -5.0686 -3.79261
rtoes 8.02256
lfemur -2.22581 1.89096 -21.823
ltibia 22.4056
lfoot -16.442 7.0383
ltoes -17.6004
1480
root 0.367221 17.8015 -1.02076 -178.095 185.814 -180.092
lowerback 5.72959 -0.759166 -1.09691
upperback 0.0381368 -0.943638 4.55239
thorax -3.08314 -0.423552 5.4287
lowerneck -24.8914 -3.63299 -9.25695
upperneck 22.3296 -3.34782 6.39666
head 11.6975 -1.46858 3.35136
rclavicle 1.63003e-014 -9.54166e-015
rhumerus 40.4613 -43.1904 -14.4521
rradius 65.0144
rwrist 9.84378
rhand -51.0082 -2.76062
rfingers 7.12502
rthumb -23.5565 -31.338
lclavicle 1.63003e-014 -9.54166e-015
lhumerus 32.9499 40.5661 18.4343
lradius 69.4169
lwrist -15.8654
lhand -41.329 34.2854
lfingers 7.12502
lthumb -14.2487 1143.78
rfemur -20.1374 5.81665 6.74589
rtibia 25.5974
rfoot -5.62267 -3.97985
rtoes 6.56531
lfemur -2.39018 1.93279 -21.8174
ltibia 22.3309
lfoot -16.3271 6.98736
ltoes -17.6691
